<svg width="143" height="56" viewBox="0 0 143 56" fill="none" xmlns="http://www.w3.org/2000/svg">
<path d="M62.5854 31.9821C62.7893 31.9817 62.9913 32.0218 63.1796 32.1001C63.3679 32.1784 63.5388 32.2933 63.6823 32.4382C63.8258 32.5831 63.9391 32.755 64.0156 32.9441C64.0921 33.1331 64.1303 33.3355 64.1279 33.5394C64.1226 33.9468 63.9583 34.3361 63.6702 34.6242C63.3821 34.9123 62.9928 35.0766 62.5854 35.0819V35.0819L54.6866 35.0553V39.81H60.3898C60.5933 39.8071 60.7953 39.8448 60.9841 39.9209C61.1728 39.997 61.3445 40.11 61.4891 40.2532C61.6342 40.3972 61.7493 40.5684 61.8279 40.7571C61.9065 40.9458 61.947 41.1481 61.947 41.3525C61.947 41.5569 61.9065 41.7593 61.8279 41.9479C61.7493 42.1366 61.6342 42.3079 61.4891 42.4518C61.3445 42.595 61.1728 42.708 60.9841 42.7841C60.7953 42.8602 60.5933 42.898 60.3898 42.8951H54.6866V49.2011C54.6899 49.4038 54.6508 49.605 54.572 49.7917C54.4931 49.9784 54.3761 50.1467 54.2285 50.2856C54.0871 50.4341 53.9163 50.5514 53.7271 50.6303C53.5378 50.7091 53.3342 50.7478 53.1292 50.7437C52.7218 50.7383 52.3326 50.5741 52.0444 50.2859C51.7563 49.9978 51.5921 49.6086 51.5867 49.2011V33.5128C51.5827 33.3099 51.6205 33.1084 51.6978 32.9208C51.7751 32.7332 51.8902 32.5635 52.0359 32.4224C52.1748 32.2748 52.3431 32.1578 52.5298 32.0789C52.7166 32.0001 52.9177 31.961 53.1204 31.9643V31.9643L62.5854 31.9821Z" fill="white"/>
<path d="M67.7331 31.9821C68.1405 31.9875 68.5298 32.1517 68.8179 32.4399C69.106 32.728 69.2703 33.1172 69.2756 33.5247V47.6528H76.1963C76.4005 47.6497 76.603 47.6886 76.7916 47.7668C76.9801 47.8451 77.1507 47.9612 77.2927 48.1078C77.5062 48.3246 77.6509 48.5996 77.7088 48.8983C77.7667 49.197 77.7352 49.5061 77.6181 49.787C77.501 50.0678 77.3037 50.3079 77.0507 50.477C76.7978 50.6462 76.5006 50.7369 76.1963 50.7378H67.7331C67.3256 50.7325 66.9364 50.5682 66.6483 50.2801C66.3601 49.992 66.1959 49.6027 66.1906 49.1953V33.5335C66.1959 33.1261 66.3601 32.7369 66.6483 32.4487C66.9364 32.1606 67.3256 31.9964 67.7331 31.991V31.9821Z" fill="white"/>
<path d="M88.0017 50.7437C85.5137 50.7351 83.13 49.743 81.3707 47.9836C79.6113 46.2243 78.6192 43.8406 78.6106 41.3526C78.6094 39.808 78.9893 38.2871 79.7164 36.9244C80.4435 35.5617 81.4956 34.3995 82.7792 33.5405C84.0629 32.6816 85.5386 32.1525 87.0756 32.0002C88.6126 31.8479 90.1635 32.077 91.5908 32.6673C93.018 33.2576 94.2777 34.1908 95.2582 35.3842C96.2386 36.5777 96.9096 37.9945 97.2116 39.5092C97.5136 41.0239 97.4374 42.5898 96.9896 44.068C96.5419 45.5462 95.7364 46.8912 94.6447 47.9837C93.7847 48.8732 92.7516 49.577 91.6091 50.0517C90.4665 50.5264 89.2388 50.7619 88.0017 50.7437V50.7437ZM88.0017 35.0495C86.756 35.0491 85.5382 35.4188 84.5029 36.1116C83.4676 36.8044 82.6613 37.7891 82.1865 38.9408C81.7116 40.0925 81.5895 41.3592 81.8357 42.5804C82.0819 43.8016 82.6852 44.9222 83.5692 45.7999C84.4512 46.6717 85.571 47.2637 86.7882 47.5015C88.0053 47.7393 89.2656 47.6125 90.4109 47.1369C91.5563 46.6613 92.5357 45.858 93.2263 44.828C93.9169 43.7979 94.288 42.5868 94.293 41.3467C94.2942 40.5186 94.132 39.6984 93.8156 38.9332C93.4993 38.1679 93.035 37.4726 92.4495 36.8871C91.864 36.3016 91.1686 35.8373 90.4034 35.521C89.6381 35.2046 88.818 35.0424 87.9899 35.0436L88.0017 35.0495Z" fill="white"/>
<path d="M102.201 50.6195C101.998 50.622 101.796 50.5826 101.609 50.5038C101.422 50.4249 101.253 50.3084 101.113 50.1615C100.97 50.0225 100.857 49.8556 100.78 49.6711C100.704 49.4866 100.667 49.2884 100.67 49.0888V33.5512C100.668 33.3517 100.706 33.1538 100.782 32.9695C100.858 32.7851 100.971 32.6181 101.113 32.4785C101.255 32.3335 101.423 32.2182 101.61 32.1395C101.796 32.0608 101.997 32.0202 102.199 32.0202C102.402 32.0202 102.602 32.0608 102.789 32.1395C102.975 32.2182 103.144 32.3335 103.285 32.4785C103.428 32.6181 103.54 32.7851 103.617 32.9695C103.693 33.1538 103.731 33.3517 103.728 33.5512V40.4305L111.211 32.5701C111.348 32.4216 111.514 32.3022 111.698 32.2189C111.882 32.1357 112.081 32.0903 112.283 32.0855C112.484 32.0793 112.684 32.1147 112.871 32.1894C113.058 32.2642 113.227 32.3767 113.368 32.5198C113.66 32.7991 113.83 33.183 113.84 33.5874C113.85 33.9918 113.7 34.3837 113.421 34.677L107.145 41.2875L113.669 48.155C113.809 48.3006 113.918 48.4725 113.99 48.6608C114.062 48.8491 114.095 49.0498 114.089 49.2513C114.08 49.5537 113.982 49.8467 113.808 50.0937C113.633 50.3407 113.39 50.5307 113.108 50.6399C112.825 50.749 112.517 50.7725 112.222 50.7074C111.927 50.6423 111.657 50.4914 111.447 50.2738L105.026 43.5038L103.728 44.8778V49.0888C103.726 49.4935 103.565 49.8811 103.279 50.1676C102.993 50.454 102.605 50.6164 102.201 50.6195V50.6195Z" fill="white"/>
<path d="M118.4 50.7436C117.992 50.739 117.602 50.5751 117.314 50.2869C117.025 49.9987 116.86 49.609 116.855 49.2011V33.6044C116.872 33.2065 117.042 32.8308 117.33 32.5555C117.618 32.2801 118.001 32.1264 118.399 32.1264C118.797 32.1264 119.18 32.2801 119.467 32.5555C119.755 32.8308 119.925 33.2065 119.943 33.6044V49.21C119.937 49.6174 119.773 50.0066 119.485 50.2948C119.197 50.5829 118.808 50.7471 118.4 50.7525V50.7436Z" fill="white"/>
<path d="M58.5901 5.74729C60.1346 5.71575 61.629 6.29566 62.7479 7.36074C63.2872 7.84598 63.7196 8.43816 64.0176 9.09962C64.3156 9.76107 64.4727 10.4773 64.4788 11.2028C64.4849 11.9282 64.3399 12.647 64.0531 13.3134C63.7663 13.9798 63.344 14.5791 62.8129 15.0734C61.7371 16.1206 60.3011 16.716 58.7999 16.7371H58.7468H58.5901H58.5103H54.6688V23.0461C54.6738 23.2506 54.6367 23.4539 54.56 23.6435C54.4832 23.8331 54.3684 24.0049 54.2226 24.1484C54.0796 24.2956 53.9082 24.4121 53.7186 24.4909C53.5291 24.5697 53.3256 24.6089 53.1203 24.6064C52.7113 24.601 52.3206 24.4362 52.0314 24.1469C51.7421 23.8577 51.5773 23.4669 51.5719 23.0579V7.30459C51.578 6.8961 51.7432 6.5061 52.0324 6.2175C52.3215 5.9289 52.7118 5.76445 53.1203 5.75911L58.5901 5.74729ZM58.6817 13.6432C59.3821 13.6413 60.0578 13.3839 60.5818 12.9192C60.8306 12.7135 61.0305 12.455 61.167 12.1624C61.3035 11.8698 61.3731 11.5505 61.3709 11.2277C61.3686 10.9049 61.2945 10.5866 61.1539 10.296C61.0134 10.0054 60.8099 9.74967 60.5582 9.54747C60.0135 9.07411 59.3116 8.82119 58.5901 8.83826H54.6688V13.6432H58.6817Z" fill="white"/>
<path d="M78.8234 5.78564C79.2263 5.78642 79.6125 5.9466 79.8976 6.23119C80.1828 6.51579 80.3437 6.90167 80.3453 7.30453V17.8777C80.364 18.7706 80.2043 19.6583 79.8756 20.4888C79.5468 21.3192 79.0556 22.0756 78.4307 22.7138C77.8058 23.3519 77.0598 23.8589 76.2365 24.205C75.4131 24.5511 74.529 24.7294 73.6358 24.7294C72.7427 24.7294 71.8585 24.5511 71.0352 24.205C70.2118 23.8589 69.4659 23.3519 68.841 22.7138C68.2161 22.0756 67.7249 21.3192 67.3961 20.4888C67.0674 19.6583 66.9077 18.7706 66.9264 17.8777V7.30453C66.9264 6.90091 67.0867 6.51383 67.3721 6.22842C67.6575 5.94302 68.0446 5.78268 68.4483 5.78268C68.8519 5.78268 69.239 5.94302 69.5244 6.22842C69.8098 6.51383 69.9701 6.90091 69.9701 7.30453V17.8777C69.9562 18.3678 70.0407 18.8558 70.2187 19.3127C70.3966 19.7696 70.6644 20.1862 71.0062 20.5378C71.348 20.8894 71.7568 21.1689 72.2084 21.3598C72.6601 21.5507 73.1455 21.649 73.6358 21.649C74.1262 21.649 74.6116 21.5507 75.0632 21.3598C75.5149 21.1689 75.9237 20.8894 76.2655 20.5378C76.6073 20.1862 76.875 19.7696 77.053 19.3127C77.231 18.8558 77.3155 18.3678 77.3016 17.8777V7.30453C77.3024 6.90115 77.4629 6.51452 77.7482 6.22929C78.0334 5.94405 78.42 5.78347 78.8234 5.78268V5.78564Z" fill="white"/>
<path d="M97.05 11.2288C97.0551 12.3652 96.6761 13.4701 95.9744 14.3641C95.2887 15.2883 94.3355 15.9794 93.2439 16.3439L96.2226 22.3752C96.3983 22.7443 96.4225 23.1675 96.2899 23.5541C96.1573 23.9408 95.8786 24.2601 95.5134 24.4437C95.3004 24.5463 95.0672 24.5998 94.8308 24.6003C94.5404 24.6134 94.2529 24.5375 94.0069 24.3828C93.7608 24.2281 93.5678 24.0019 93.4537 23.7345L89.9786 16.6867H87.3191V22.9426C87.3282 23.1506 87.2951 23.3584 87.2217 23.5533C87.1484 23.7482 87.0364 23.9262 86.8924 24.0767C86.7484 24.2271 86.5754 24.3468 86.3839 24.4286C86.1924 24.5104 85.9863 24.5526 85.778 24.5526C85.5698 24.5526 85.3637 24.5104 85.1721 24.4286C84.9806 24.3468 84.8077 24.2271 84.6637 24.0767C84.5197 23.9262 84.4076 23.7482 84.3343 23.5533C84.2609 23.3584 84.2278 23.1506 84.237 22.9426V7.30446C84.2354 6.89587 84.396 6.50334 84.6835 6.21303C84.9711 5.92273 85.362 5.75837 85.7706 5.75602H91.202C92.7384 5.72293 94.2255 6.29866 95.3391 7.35766C95.8852 7.84246 96.3206 8.43908 96.6158 9.10701C96.911 9.77494 97.0591 10.4986 97.05 11.2288ZM91.3025 13.5928C91.9981 13.5826 92.6678 13.3272 93.1937 12.8718C93.4395 12.6667 93.6366 12.4094 93.7705 12.1187C93.9044 11.8279 93.9718 11.511 93.9679 11.1909C93.9639 10.8708 93.8886 10.5556 93.7476 10.2682C93.6065 9.98084 93.4032 9.72852 93.1523 9.52961C92.6092 9.06471 91.9138 8.8164 91.199 8.83222H87.3161V13.6017L91.3025 13.5928Z" fill="white"/>
<path d="M107.221 5.74731C108.766 5.71545 110.26 6.2954 111.379 7.36077C111.918 7.846 112.351 8.43819 112.649 9.09964C112.947 9.76109 113.104 10.4773 113.11 11.2028C113.116 11.9282 112.971 12.647 112.684 13.3134C112.398 13.9798 111.975 14.5792 111.444 15.0734C110.369 16.1217 108.933 16.7172 107.431 16.7371H107.378H107.221H107.142H103.3V23.0461C103.307 23.2501 103.272 23.4534 103.197 23.6431C103.121 23.8328 103.008 24.0048 102.863 24.1484C102.72 24.2956 102.548 24.4122 102.359 24.4909C102.169 24.5697 101.966 24.609 101.76 24.6064C101.347 24.6049 100.952 24.4399 100.66 24.1475C100.368 23.8552 100.204 23.4592 100.203 23.0461V7.30462C100.208 6.89616 100.372 6.50573 100.661 6.21689C100.95 5.92804 101.34 5.76374 101.749 5.75913L107.221 5.74731ZM107.313 13.6432C108.014 13.6415 108.691 13.3841 109.216 12.9192C109.464 12.713 109.663 12.4542 109.799 12.1615C109.935 11.8689 110.004 11.5497 110.002 11.227C109.999 10.9044 109.925 10.5863 109.785 10.2959C109.644 10.0054 109.441 9.74979 109.189 9.5475C108.645 9.07413 107.943 8.82121 107.221 8.83829H103.3V13.6432H107.313Z" fill="white"/>
<path d="M117.461 5.78555C117.87 5.79091 118.26 5.95577 118.55 6.24501C118.839 6.53424 119.004 6.92499 119.009 7.334V21.4887H125.947C126.153 21.4849 126.356 21.524 126.546 21.6034C126.735 21.6828 126.906 21.8007 127.047 21.9497C127.333 22.2399 127.493 22.6311 127.493 23.0386C127.493 23.4461 127.333 23.8373 127.047 24.1275C126.904 24.2748 126.733 24.3914 126.544 24.4702C126.355 24.549 126.152 24.5882 125.947 24.5856H117.461C117.051 24.5817 116.659 24.4173 116.37 24.1278C116.08 23.8382 115.916 23.4466 115.912 23.0371V7.334C115.916 6.92452 116.08 6.5329 116.37 6.24334C116.659 5.95378 117.051 5.78941 117.461 5.78555V5.78555Z" fill="white"/>
<path d="M140.604 21.4887C140.808 21.4858 141.01 21.525 141.198 21.6039C141.385 21.6827 141.554 21.7994 141.695 21.9467C141.844 22.0883 141.962 22.2589 142.043 22.4479C142.124 22.6369 142.165 22.8405 142.165 23.046C142.161 23.4555 141.997 23.8471 141.707 24.1367C141.417 24.4262 141.026 24.5906 140.616 24.5945H131.11C130.7 24.5906 130.309 24.4262 130.019 24.1367C129.73 23.8471 129.565 23.4555 129.561 23.046V7.31927C129.562 6.90773 129.725 6.5131 130.015 6.221C130.305 5.9289 130.698 5.76289 131.11 5.759V5.759L140.593 5.7856C140.799 5.78163 141.004 5.81918 141.196 5.89604C141.388 5.97289 141.562 6.08748 141.709 6.233C141.856 6.37852 141.971 6.55202 142.05 6.74318C142.128 6.93435 142.167 7.1393 142.165 7.34586C142.161 7.75534 141.997 8.14696 141.707 8.43652C141.417 8.72608 141.026 8.89045 140.616 8.89431V8.89431L132.694 8.86771V13.6283H138.412C138.614 13.6269 138.815 13.6656 139.003 13.7422C139.191 13.8187 139.361 13.9317 139.505 14.0745C139.728 14.2906 139.881 14.5686 139.943 14.8724C140.006 15.1763 139.976 15.492 139.857 15.7786C139.739 16.0653 139.536 16.3096 139.277 16.48C139.018 16.6503 138.713 16.7388 138.403 16.734H132.67V21.4887H140.604Z" fill="white"/>
<path d="M21.0091 55.7967C32.6122 55.7967 42.0183 54.0941 42.0183 51.9938C42.0183 49.8935 32.6122 48.1909 21.0091 48.1909C9.40611 48.1909 0 49.8935 0 51.9938C0 54.0941 9.40611 55.7967 21.0091 55.7967Z" fill="#E6E6E6"/>
<path d="M42.6372 34.0876C42.4181 37.3783 40.1147 38.9561 38.1841 39.7045C36.9438 40.1647 35.6431 40.4417 34.3229 40.5268L33.9999 39.7286L33.97 39.6561L37.3447 38.3415L37.4329 38.3913C37.9191 38.6367 38.4671 38.7328 39.0078 38.6673L38.9737 38.6516C38.8879 38.6101 38.8052 38.5626 38.7261 38.5094L38.6963 38.488C38.3263 38.2111 38.0352 37.8421 37.8519 37.4178C37.6687 36.9935 37.5998 36.5286 37.652 36.0694C37.7644 34.6979 38.766 33.8429 39.5897 33.4403C39.6894 33.4195 39.7901 33.4039 39.8913 33.3933C40.8591 33.3033 41.8285 33.5484 42.6372 34.0876V34.0876Z" fill="#7606BF"/>
<path d="M18.7527 46.2617V46.3414H18.7314C18.7314 46.3158 18.7427 46.2888 18.7499 46.2617H18.7527Z" fill="black"/>
<path d="M30.601 36.105L30.6992 36.0879L30.601 36.105Z" fill="black"/>
<path d="M44.6502 35.3254C44.3557 34.4362 43.6458 33.7334 42.8619 33.2866C41.3197 32.3889 39.187 32.3163 37.7899 33.5356C36.794 34.3764 36.1197 35.9969 36.5223 37.2958C35.6217 38.0072 34.0909 38.5435 33.5915 38.7072L32.368 35.6839C36.5337 34.486 40.2327 31.9137 41.2215 27.3525C41.7067 25.2185 41.5843 22.9876 41.0536 20.8664L41.0323 20.7839C40.8462 20.0587 40.6148 19.346 40.3394 18.6498C39.6882 16.9807 38.8364 15.3969 37.8027 13.9335C37.8781 11.6145 37.6604 8.89144 37.1369 6.63645C36.7197 4.8539 36.119 3.11936 35.3443 1.46064C35.2146 1.18463 34.981 0.971105 34.6945 0.86663C34.408 0.762154 34.0918 0.775205 33.8149 0.902936C32.8452 1.3533 31.9052 1.86509 31.0008 2.43519C29.8 3.19244 28.6667 4.05161 27.6133 5.00318C26.9982 4.70137 26.362 4.4446 25.7097 4.23492C22.0887 3.07155 18.1597 3.3383 14.7292 4.98042C12.8823 3.31958 10.796 1.946 8.54044 0.905779C8.26367 0.778494 7.94783 0.76568 7.66166 0.870129C7.37549 0.974579 7.14215 1.18784 7.01245 1.46348C5.24745 5.23753 4.39972 9.37537 4.53837 13.5394H4.57394C3.61491 14.8146 2.81155 16.1997 2.18094 17.6653C1.80296 18.5374 1.49423 19.4379 1.2576 20.3585C1.24906 20.3884 1.24196 20.4168 1.23485 20.4467C0.689951 22.6234 0.569009 24.9055 1.04562 27.1021C2.04151 31.6875 5.52145 34.422 9.75544 35.6995L7.43645 41.4274C6.86736 41.6763 5.01783 42.6068 4.2581 44.3183C3.85832 45.2246 3.80283 46.6473 4.10729 48.1241C4.21541 48.6434 4.61662 50.3122 5.42045 50.877C5.41128 50.914 5.40417 50.9516 5.39912 50.9894C5.21559 52.1759 5.89705 53.2302 6.94986 53.7381C7.51894 54.0311 8.17196 54.1649 8.79938 54.2659C9.42836 54.3524 10.066 54.3558 10.6959 54.2759C11.568 54.1592 12.4572 53.8405 13.1386 53.2643C13.4198 53.6306 13.7854 53.9235 14.2042 54.1179C15.3894 54.6941 16.9074 54.8293 18.0854 54.1507C18.4737 53.9124 18.7765 53.5573 18.9504 53.1363H23.2043C23.6311 54.162 24.7451 54.5433 25.8036 54.559C26.6042 54.5496 27.3902 54.3424 28.0913 53.9557C28.4163 53.765 28.7002 53.5116 28.9264 53.2102C30.1158 54.2474 31.8117 54.4722 33.3368 54.2687C33.9628 54.1692 34.6173 54.034 35.1864 53.7409C36.2406 53.2316 36.9192 52.1759 36.7386 50.9922C36.7386 50.9538 36.7257 50.9168 36.7172 50.8798C37.521 50.3108 37.9208 48.6462 38.0289 48.1269C38.3334 46.6501 38.2779 45.2274 37.8781 44.3212C37.6841 43.8879 37.4224 43.4884 37.1027 43.1375L37.2578 43.1147C37.4954 43.0749 37.8554 43.0236 38.0901 42.9724C39.7675 42.6352 41.4392 42.0505 42.7751 40.9422C43.3853 40.4516 43.8857 39.8384 44.2437 39.1421C44.6018 38.4458 44.8096 37.682 44.8537 36.9003C44.8537 36.8491 44.8537 36.7993 44.8537 36.7481C44.8618 36.2661 44.7931 35.7858 44.6502 35.3254V35.3254ZM7.50474 34.1218C6.14781 33.3534 4.95521 32.3257 3.99489 31.0971C3.04241 29.8702 2.37469 28.4468 2.04009 26.93C2.04009 26.93 2.04009 26.93 2.04009 26.93C2.01875 26.8375 2.00027 26.745 1.98177 26.6454C1.92913 26.378 1.88504 26.1076 1.85232 25.8345C1.84093 25.7434 1.82952 25.6524 1.81956 25.5613C1.78826 25.254 1.7674 24.9439 1.75697 24.6309C1.75697 24.5398 1.75697 24.4488 1.75697 24.3563C1.75697 23.9778 1.75696 23.5937 1.78257 23.2067C1.82764 22.5093 1.91748 21.8155 2.05148 21.1296C2.05148 21.1011 2.06142 21.0713 2.06711 21.0428C2.59778 18.371 3.74735 15.84 5.18429 13.5024C5.23266 13.4228 5.28246 13.3445 5.32656 13.2663C5.75337 12.5862 6.20151 11.9247 6.66532 11.2745C6.18724 11.6916 5.73717 12.1398 5.31802 12.6161C5.32169 8.86811 6.14729 5.16653 7.73662 1.77221C7.77738 1.68541 7.85085 1.61828 7.94096 1.58549C8.03107 1.5527 8.1305 1.55691 8.21751 1.59721C10.3109 2.56511 12.2539 3.82962 13.9866 5.35174C13.5408 5.60388 13.1104 5.88227 12.6976 6.18545C15.3529 4.97042 18.239 4.34246 21.159 4.34442C24.079 4.34639 26.9643 4.97823 29.6179 6.19683C29.2151 5.89817 28.7946 5.62404 28.3588 5.37593C30.0981 3.84294 32.0504 2.57014 34.1549 1.59721C34.2419 1.55691 34.3413 1.5527 34.4314 1.58549C34.5216 1.61828 34.595 1.68541 34.6358 1.77221C36.2672 5.25559 37.0939 9.06145 37.0544 12.9077C36.5687 12.3067 36.046 11.7365 35.4894 11.2005C37.0971 13.6547 38.5724 16.1586 39.5399 18.9215C39.817 19.7087 40.0418 20.5134 40.2128 21.3302L40.2299 21.4155C40.2427 21.481 40.2555 21.5464 40.2668 21.6133C40.2782 21.6802 40.2868 21.72 40.2967 21.7727C40.6154 23.4198 40.6294 25.1114 40.338 26.7635V26.772C40.3209 26.8631 40.3024 26.9527 40.2825 27.0424C40.2833 27.0485 40.2833 27.0547 40.2825 27.0609V27.0708C40.1096 27.8659 39.8416 28.6374 39.4844 29.3685C37.7572 32.8328 34.1976 34.7919 30.5483 35.7821C30.4061 35.8219 30.2496 35.8617 30.1002 35.8987C29.8687 36.0334 29.6217 36.1695 29.3589 36.307C26.8673 37.5992 24.1032 38.2781 21.2965 38.2875H21.241C18.5077 38.2889 15.8119 37.6527 13.3677 36.4294V36.4294C13.1515 36.3213 12.9452 36.2131 12.7488 36.105C12.4572 36.0381 12.1655 35.9627 11.8739 35.8859C10.3465 35.4918 8.87753 34.8987 7.50474 34.1218ZM37.1497 44.627C37.8611 46.2333 37.0999 49.2636 36.4127 50.0774C36.3489 49.9666 36.2771 49.8606 36.1979 49.7602C36.1794 49.7374 36.1623 49.7161 36.1424 49.6947C36.1225 49.6734 36.0755 49.6179 36.04 49.5809C35.9277 49.4656 35.8026 49.3635 35.6672 49.2765C35.5871 49.2257 35.5017 49.1837 35.4126 49.1513C35.5185 49.3629 35.6097 49.5816 35.6857 49.8057C36.0215 50.8457 36.0243 51.6908 35.5193 52.2912C35.4951 52.3196 35.4709 52.3481 35.4439 52.3751C35.3793 52.4432 35.3093 52.506 35.2347 52.5629C35.2219 52.5046 35.2077 52.4462 35.1935 52.3893C35.1935 52.3623 35.1807 52.3367 35.1721 52.3111C35.0783 51.9441 34.9208 51.5965 34.7069 51.2839C34.5871 51.1124 34.4268 50.9731 34.2403 50.8784C34.377 51.0173 34.4772 51.1879 34.5319 51.3749C34.6184 51.6853 34.6521 52.008 34.6315 52.3296C34.6315 52.3552 34.6315 52.3808 34.6315 52.4078C34.6184 52.584 34.5951 52.7593 34.5618 52.9328C34.4332 52.9823 34.3021 53.025 34.1691 53.0609C33.8366 53.1457 33.4993 53.2103 33.159 53.2544C33.1021 53.0808 33.0352 52.9115 32.9598 52.7408C32.8953 52.6031 32.8231 52.4692 32.7436 52.3395V52.3395C32.7237 52.3082 32.7023 52.2769 32.681 52.2471C32.5864 52.1105 32.4612 51.9979 32.3153 51.9184C32.387 52.0014 32.4408 52.0983 32.4733 52.203V52.203C32.4832 52.2314 32.4918 52.2613 32.5003 52.2912C32.5088 52.3211 32.5131 52.3381 32.5188 52.3623C32.5788 52.6753 32.5956 52.9951 32.5686 53.3127C31.4461 53.371 30.3065 53.1704 29.3974 52.5174C29.6843 52.0251 29.9317 51.5109 30.1372 50.9794V50.9794C30.1471 50.9524 30.1585 50.9268 30.1685 50.9012C30.2552 50.6821 30.3378 50.4616 30.4203 50.2396C30.6308 49.6521 30.8201 49.0602 30.9894 48.4641L31.015 48.3773C31.1288 47.9808 31.2369 47.583 31.3393 47.1837C31.6095 46.1597 31.8246 45.122 31.9838 44.075C32.1261 43.0279 32.2755 41.9794 32.2399 40.9067C31.8131 42.1387 31.4845 43.4462 31.0605 44.684C31.0022 44.8675 30.8841 45.253 30.8315 45.4337C30.5313 46.5406 30.2482 47.6588 29.9053 48.7543L29.8797 48.834C29.6377 49.6195 29.3484 50.3897 29.0132 51.1402L28.9321 51.3138C28.622 51.9483 28.2876 52.6042 27.7499 53.021C27.667 53.0778 27.5783 53.1255 27.4853 53.1633L27.3629 53.2216C27.3844 52.9157 27.36 52.6083 27.2903 52.3097C27.2903 52.2912 27.2804 52.2741 27.2761 52.257C27.2718 52.24 27.2604 52.2058 27.2505 52.1816C27.1997 52.0238 27.1163 51.8784 27.0058 51.7548C27.0697 51.9034 27.1013 52.064 27.0983 52.2257C27.0997 52.2537 27.0997 52.2817 27.0983 52.3097V52.3253C27.0537 52.7199 26.9319 53.1018 26.7398 53.4493C26.3249 53.5726 25.8906 53.6174 25.4593 53.5816C25.4886 53.2392 25.4742 52.8945 25.4166 52.5558C25.4166 52.5288 25.4067 52.5017 25.401 52.4761C25.3953 52.4505 25.401 52.4562 25.401 52.4448C25.3669 52.2712 25.289 52.1091 25.1748 51.9739C25.2249 52.1296 25.2352 52.2955 25.2046 52.4562C25.2046 52.4562 25.2046 52.4562 25.2046 52.4562C25.2046 52.4818 25.1947 52.5074 25.189 52.533C25.1187 52.8508 25.0068 53.1579 24.8561 53.4464L24.8291 53.4365C24.6421 53.3823 24.4703 53.2853 24.3273 53.1532C24.1843 53.021 24.0741 52.8574 24.0053 52.6753C23.9793 52.603 23.9588 52.5288 23.9441 52.4534C23.9327 52.4059 23.9228 52.3585 23.9142 52.3111C23.9071 52.2826 23.9014 52.2542 23.8958 52.2257C23.6332 50.8875 23.5079 49.5261 23.5216 48.1625C23.5216 48.134 23.5216 48.1027 23.5216 48.0728C23.5216 47.9647 23.5216 47.8566 23.5216 47.747C23.5274 47.2704 23.4898 46.7942 23.4092 46.3243C23.4092 46.2987 23.4007 46.2731 23.395 46.2461C23.3893 46.2191 23.3821 46.1863 23.375 46.1565H23.358C23.3395 46.1863 23.3224 46.2176 23.3053 46.2475C23.2882 46.2774 23.2769 46.2987 23.2641 46.3258C22.8771 47.0599 22.8117 47.8637 22.796 48.6732C22.7946 48.7007 22.7946 48.7283 22.796 48.7557C22.796 48.8055 22.796 48.8582 22.796 48.908C22.796 49.0374 22.796 49.1655 22.796 49.2949V49.3746C22.8043 50.3613 22.8846 51.3461 23.0364 52.3211H19.1553C19.3016 51.3238 19.3729 50.3171 19.3687 49.3092C19.3687 49.2893 19.3687 49.2708 19.3687 49.2508C19.3687 49.2309 19.3687 49.1954 19.3687 49.1669C19.3687 49.0531 19.3687 48.9393 19.3687 48.824C19.3687 48.7956 19.3687 48.7685 19.3687 48.7401C19.3645 48.2963 19.3264 47.8535 19.2549 47.4155C19.1813 46.9744 19.0341 46.5488 18.8195 46.1565H18.8025C18.7954 46.1793 18.7897 46.2026 18.7854 46.2262V46.2262V46.3058H18.7626C18.6664 46.7791 18.6216 47.2613 18.6289 47.7442C18.6289 47.7869 18.6289 47.8296 18.6289 47.8708C18.6289 47.9121 18.6289 47.9263 18.6289 47.9548C18.6704 49.4051 18.555 50.8557 18.2846 52.2812C18.2846 52.3139 18.2718 52.3452 18.2647 52.378C18.2576 52.4107 18.2547 52.4263 18.2504 52.4519C18.2347 52.5279 18.2147 52.603 18.1907 52.6767C18.1212 52.8678 18.0077 53.0399 17.8595 53.1791C17.7112 53.3182 17.5322 53.4205 17.3371 53.4777C17.1787 53.1819 17.0596 52.8667 16.9828 52.5401C16.9759 52.5135 16.9711 52.4864 16.9686 52.4591C16.9403 52.2936 16.9495 52.1239 16.9956 51.9625C16.886 52.1012 16.8087 52.2626 16.7694 52.4349C16.7624 52.4602 16.7567 52.4858 16.7523 52.5117C16.6859 52.8768 16.672 53.2495 16.7111 53.6186C16.2939 53.6618 15.8723 53.6276 15.4676 53.5175C15.2329 53.0751 15.0095 52.5672 15.0693 52.0678C15.0693 52.0422 15.0693 52.0152 15.0807 51.9881C15.0957 51.9045 15.1191 51.8225 15.1504 51.7434C15.0952 51.8096 15.0475 51.8817 15.0081 51.9583C14.9946 51.9806 14.9827 52.0039 14.9725 52.028C14.8061 52.4259 14.7486 52.861 14.8061 53.2885C14.7501 53.2657 14.696 53.2415 14.6439 53.2159C13.9795 52.9399 13.3805 51.9639 12.8712 50.7689C12.8456 50.7105 12.8214 50.6508 12.7958 50.5896C12.6009 50.1187 12.4202 49.6179 12.2537 49.1157C12.2452 49.0858 12.2338 49.0574 12.2253 49.0289C11.76 47.6062 11.4143 46.1963 11.2194 45.4323C11.1212 45.0496 10.9249 44.2941 10.8196 43.9128C10.5763 43.0208 10.2505 41.7333 9.92758 40.8782C9.90055 41.241 9.94753 41.7005 9.95891 42.0733C10.0087 42.732 10.0699 43.3978 10.1396 44.0551C10.2314 45.113 10.4181 46.1605 10.6973 47.1851C10.7798 47.4796 10.8737 47.8281 10.9818 48.2108C10.9889 48.2393 10.9975 48.2663 11.0046 48.2948C11.2727 49.2617 11.5982 50.2119 11.9791 51.1402C11.9891 51.1658 12.0005 51.19 12.0104 51.2156C12.2037 51.6722 12.4286 52.1148 12.6834 52.5401C11.7814 53.1462 10.6831 53.334 9.59753 53.2785C9.56218 52.9501 9.57994 52.6182 9.65016 52.2954C9.65699 52.2665 9.66557 52.238 9.67579 52.2101C9.7136 52.0931 9.77189 51.9837 9.84793 51.8871C9.69398 51.976 9.56217 52.0985 9.46238 52.2456C9.44085 52.2739 9.42087 52.3034 9.40261 52.3339C9.23219 52.6124 9.0983 52.9117 9.00424 53.2245C8.66451 53.1791 8.32773 53.114 7.99556 53.0296C7.86081 52.9949 7.72825 52.9521 7.59862 52.9015C7.59009 52.8503 7.58156 52.7977 7.57445 52.7507C7.55311 52.5786 7.53318 52.3965 7.52606 52.2144C7.52606 52.1859 7.52606 52.1589 7.52606 52.1333C7.51753 51.6652 7.59293 51.1957 7.92016 50.8528C7.5033 51.0705 7.23868 51.5215 7.06653 52.0109C7.05799 52.0351 7.04947 52.0607 7.04235 52.0849C6.99398 52.2343 6.95556 52.3865 6.92283 52.5345C6.66757 52.3461 6.47038 52.0897 6.35375 51.7946C6.34095 51.7591 6.32814 51.7235 6.31818 51.6865C6.30822 51.6495 6.30397 51.6353 6.29686 51.6097C6.13325 50.8144 6.34665 49.9949 6.68668 49.2551L6.74784 49.1256C6.72508 49.1356 6.70375 49.1441 6.68241 49.1555C6.47365 49.2511 6.28451 49.3848 6.12468 49.5496C6.10334 49.5695 6.08201 49.5909 6.06209 49.6122C5.94062 49.7467 5.83424 49.8942 5.74483 50.0518C5.05766 49.2352 4.30506 46.2105 5.01072 44.6029C5.27602 44.0376 5.665 43.5392 6.14889 43.1446C6.19442 43.1062 6.23852 43.0692 6.29116 43.0336C6.78766 42.6382 7.33509 42.3114 7.91873 42.0619L8.07806 42.0007L10.555 35.8831C10.7186 35.9258 10.8837 35.9642 11.0487 36.0026C11.2635 36.0538 11.4755 36.0993 11.6975 36.1449L11.9251 36.1875C11.9251 36.27 11.9251 36.3867 11.9365 36.5304L12.0176 36.5774C14.8209 38.2006 18.003 39.0555 21.2424 39.0557H21.3007C24.5438 39.0453 27.7265 38.1785 30.527 36.5432L30.6081 36.4963C30.6074 36.4911 30.6074 36.4858 30.6081 36.4806C30.6152 36.3967 30.618 36.2217 30.6365 36.0737L30.7319 36.0581C31.0321 35.9969 31.3308 35.9314 31.6267 35.8589L34.0453 41.8485L34.1108 42.0064L34.2687 42.0676C34.6827 42.2431 35.0787 42.4584 35.451 42.7107C35.5449 42.7747 35.6402 42.8415 35.7355 42.9141C36.2648 43.3466 36.8339 43.9114 37.1497 44.627ZM43.6728 38.3572C43.6373 38.4397 43.6003 38.5222 43.5604 38.6033C43.0226 39.6874 42.0595 40.5581 40.9213 41.1357C39.8472 41.666 38.7026 42.0397 37.5225 42.2454C37.1469 42.3194 36.7286 42.3877 36.3502 42.4347C35.8423 42.0319 35.2859 41.6945 34.6941 41.4302L34.6856 41.4103L34.6528 41.3278L34.3598 40.6036L34.3285 40.5254L34.0055 39.7258L33.9742 39.6532L33.8889 39.4413C34.4579 39.252 35.929 38.7228 36.9135 37.9901C37.0416 38.1271 37.1886 38.245 37.3503 38.3401L37.4385 38.3899C37.9243 38.6352 38.4718 38.7313 39.012 38.6659L38.9793 38.6488C38.893 38.6083 38.8102 38.5607 38.7318 38.5065L38.7019 38.4852C38.3193 38.3429 37.9595 38.146 37.6334 37.9005C36.8068 37.2773 36.9591 36.1022 37.3404 35.2542C37.5425 34.7995 37.8493 34.399 38.2358 34.0855C38.6223 33.772 39.0774 33.5543 39.564 33.4502L39.5953 33.4431C39.6946 33.4229 39.7948 33.4077 39.8955 33.3976C40.8634 33.3071 41.8331 33.5511 42.6428 34.089C42.6698 34.1061 42.694 34.1232 42.7196 34.1417C43.4409 34.651 43.9574 35.3922 44.0001 36.3042C44.0585 37.0049 43.9462 37.7093 43.6728 38.3572V38.3572Z" fill="black"/>
<path d="M29.6094 6.20678C24.0403 4.94542 18.26 4.94153 12.6891 6.1954C15.3444 4.98037 18.2305 4.35241 21.1505 4.35437C24.0705 4.35634 26.9558 4.98818 29.6094 6.20678V6.20678Z" fill="#3D0475"/>
<path d="M5.47597 46.5263C5.51883 47.5899 5.70546 48.6428 6.03081 49.6563C5.90891 49.79 5.80249 49.937 5.71355 50.0945C5.02638 49.2793 4.27378 46.2532 4.97944 44.6469C5.24424 44.0814 5.6333 43.5829 6.11761 43.1887C5.6562 44.239 5.43691 45.3797 5.47597 46.5263V46.5263Z" fill="#3D0475"/>
<path d="M38.6963 38.4824C38.3137 38.3401 37.9538 38.1431 37.6278 37.8976C36.8012 37.2745 36.9534 36.0993 37.3433 35.2514C37.5451 34.7967 37.8516 34.3962 38.2379 34.0827C38.6241 33.7691 39.079 33.5514 39.5655 33.4474H39.5968C38.7731 33.85 37.7715 34.7051 37.6591 36.0766C37.6084 36.5331 37.6774 36.9949 37.8592 37.4167C38.0411 37.8385 38.3296 38.2058 38.6963 38.4824Z" fill="#3D0475"/>
<path d="M37.3447 38.3415L33.97 39.6561L33.8846 39.4427C34.4537 39.2549 35.9234 38.7313 36.9079 37.9915C37.0359 38.1286 37.183 38.2464 37.3447 38.3415V38.3415Z" fill="#3D0475"/>
<path d="M43.6629 38.3586C43.6273 38.4411 43.5903 38.5236 43.5505 38.6047C43.0127 39.6888 42.0495 40.5595 40.9128 41.1371C39.8381 41.6672 38.6931 42.0409 37.5125 42.2468C37.1384 42.3208 36.7187 42.3891 36.3417 42.4361C35.8328 42.0341 35.276 41.6967 34.6842 41.4316L34.6771 41.4117L34.6429 41.3292C35.6474 41.4245 37.9265 41.5696 39.4161 41.1087C40.7791 40.6876 42.2132 40.0388 43.6629 38.3586Z" fill="#E6E6E6"/>
<path d="M43.6629 38.3586C42.2089 40.0388 40.7748 40.6876 39.4161 41.1087C37.9266 41.5696 35.6474 41.4245 34.643 41.3292L34.3499 40.605L34.3186 40.5268C35.6388 40.4418 36.9395 40.1648 38.1798 39.7045C40.1104 38.9561 42.4138 37.3783 42.6329 34.0876C42.6596 34.103 42.6852 34.1201 42.7097 34.1388C43.431 34.6482 43.9475 35.3894 43.9902 36.3014C44.0502 37.0035 43.9378 37.7097 43.6629 38.3586V38.3586Z" fill="white"/>
<path d="M18.7527 46.2617V46.3414H18.7314C18.7314 46.3158 18.7427 46.2888 18.7499 46.2617H18.7527Z" fill="black"/>
<path d="M30.0647 35.9044C29.8328 36.0467 29.5852 36.1762 29.322 36.3113C26.8313 37.6048 24.0675 38.2843 21.261 38.2931H21.2055C18.4723 38.2946 15.7764 37.6584 13.3322 36.4351V36.4351C13.116 36.327 12.9092 36.2184 12.7119 36.1093C12.783 36.1321 14.8545 36.8093 19.41 36.9473H19.42H19.6234H19.807H19.8624H20.1769H20.5781H21.0689C26.7811 36.9771 29.9665 35.9428 30.0647 35.9044Z" fill="white"/>
<path d="M40.2484 27.0608V27.0793C40.0752 27.875 39.8068 28.647 39.4489 29.3784C37.7231 32.8427 34.1635 34.8004 30.5128 35.7906C30.3706 35.8318 30.2155 35.8703 30.0661 35.9087C29.9679 35.9414 26.7825 36.9757 21.0689 36.9757H20.5781C20.3405 36.9757 20.1015 36.9757 19.8667 36.9643H19.8112H19.6277H19.4242H19.4143C14.8616 36.822 12.7873 36.1491 12.7162 36.1263C12.4231 36.0595 12.1329 35.9841 11.8412 35.9072C8.8265 35.0892 5.91847 33.6309 3.99781 31.1212C3.04182 29.8908 2.37164 28.4629 2.03589 26.9413V26.9243C2.71737 28.1805 4.15288 30.4355 6.34243 31.9891C9.59759 34.2982 16.4764 35.1191 21.3776 35.1191C26.4268 35.1191 33.2572 34.0221 35.9675 31.9891C37.7137 30.6535 39.1702 28.9768 40.2484 27.0608V27.0608Z" fill="#E6E6E6"/>
<path d="M15.4094 36.603H15.3212V36.5944L15.4094 36.603Z" fill="#E6E6E6"/>
<path d="M21.0675 36.9771H20.8654C20.6093 36.9771 20.3533 36.9771 20.0958 36.9686H20.1356H20.2978H20.6335L21.0675 36.9771Z" fill="#E6E6E6"/>
<path d="M18.6005 47.9064C18.6005 47.9334 18.6005 47.9619 18.6005 47.9903C17.838 47.7219 17.0452 47.5484 16.2402 47.4739C15.4874 47.4346 14.7355 47.5649 14.0398 47.8552C13.3441 48.1456 12.7226 48.5885 12.2211 49.1512L12.1912 49.0645C11.7274 47.6418 11.3817 46.2319 11.1853 45.4664C11.0886 45.0851 10.8908 44.3283 10.7856 43.9484C10.5437 43.0564 10.2165 41.7688 9.89494 40.9138C9.86791 41.2751 9.91347 41.7347 9.92627 42.1088C9.97607 42.7676 10.0358 43.4334 10.1069 44.0907C10.1981 45.1487 10.3848 46.1963 10.6646 47.2206C10.7457 47.5151 10.8411 47.8637 10.9492 48.2464L10.9734 48.3303C10.4711 48.2621 8.1365 48.0287 6.65404 49.2893C6.67254 49.2451 6.69387 49.2025 6.71378 49.1598L6.64834 49.1882C6.44024 49.285 6.25129 49.4185 6.09062 49.5823C6.06786 49.6037 6.04795 49.625 6.02803 49.6464C5.70268 48.6329 5.51605 47.58 5.47319 46.5164C5.43351 45.3673 5.65331 44.2241 6.11625 43.1716L6.24998 43.0592C6.74695 42.6649 7.2943 42.3385 7.87755 42.0889L8.03691 42.0277L10.5153 35.9101C10.6789 35.9528 10.8425 35.9912 11.0075 36.0296C11.2238 36.0794 11.4343 36.1264 11.6577 36.1719L11.8853 36.2146C11.8853 36.2971 11.8853 36.4137 11.8967 36.5574C11.9618 38.1065 12.2125 39.6421 12.6436 41.1314C13.0946 42.6096 13.7206 43.7947 14.5031 44.6541C14.9622 45.1746 15.5252 45.5932 16.156 45.8828C16.7867 46.1725 17.4712 46.3268 18.1652 46.3357H18.7342C18.6359 46.8088 18.5882 47.2909 18.592 47.7741C18.5991 47.8224 18.5991 47.8637 18.6005 47.9064Z" fill="#7606BF"/>
<path d="M19.1298 52.3538C19.2756 51.3565 19.3465 50.3497 19.3417 49.3419V49.2779C19.9444 49.4734 20.5721 49.5807 21.2055 49.5965H21.2567C21.7658 49.573 22.272 49.5078 22.7704 49.4016C22.7775 50.3883 22.8575 51.3731 23.0095 52.3481L19.1298 52.3538Z" fill="#7606BF"/>
<path d="M22.7718 48.9407C22.7718 49.0687 22.7718 49.1982 22.7718 49.3277C22.7718 49.3533 22.7718 49.3803 22.7718 49.4073C22.2734 49.5135 21.7672 49.5787 21.2581 49.6022H21.2069C20.5735 49.5864 19.9458 49.4791 19.3431 49.2836C19.3431 49.2551 19.3431 49.2267 19.3431 49.1996C19.3431 49.0858 19.3431 48.972 19.3431 48.8567C19.8971 48.645 20.4831 48.5296 21.076 48.5153C21.6575 48.4938 22.2375 48.5866 22.7832 48.7885C22.7733 48.8383 22.7718 48.8895 22.7718 48.9407Z" fill="#E6E6E6"/>
<path d="M30.574 36.529C30.5498 37.6116 30.2582 43.1161 26.9561 45.5347C26.9461 45.5347 25.9018 46.3613 23.5188 46.3613H23.395C23.395 46.3357 23.3851 46.3101 23.3794 46.2831C23.3737 46.256 23.368 46.2219 23.3609 46.192H23.3438C23.3253 46.2219 23.3083 46.2518 23.2912 46.2831L23.2485 46.3613C22.863 47.0954 22.7975 47.8992 22.7804 48.7088C22.7804 48.7358 22.7804 48.7628 22.7804 48.7913C22.2347 48.5895 21.6546 48.4967 21.0732 48.5181C20.4789 48.529 19.8909 48.6416 19.3346 48.851C19.3346 48.8226 19.3346 48.7955 19.3346 48.7671C19.3119 47.8765 19.2336 46.9873 18.784 46.1835H18.7655C18.7655 46.2076 18.7542 46.2318 18.7499 46.2546C18.7456 46.2774 18.7371 46.3087 18.7314 46.3343H18.1623C17.4683 46.3253 16.7839 46.1711 16.1531 45.8814C15.5224 45.5918 14.9593 45.1732 14.5003 44.6526C13.7178 43.799 13.0918 42.6082 12.6408 41.13C12.2097 39.6407 11.9589 38.1051 11.8939 36.556L11.9735 36.6029C14.7774 38.2264 17.9599 39.0813 21.1998 39.0813H21.2567C24.5002 39.0708 27.6834 38.2041 30.4844 36.5688L30.574 36.529Z" fill="white"/>
<path d="M25.1677 52.5629C25.0975 52.8805 24.985 53.1872 24.8334 53.4749L24.8078 53.4663C24.6207 53.4123 24.4488 53.3154 24.3058 53.1833C24.1628 53.0511 24.0526 52.8874 23.984 52.7052C23.9575 52.6329 23.9366 52.5587 23.9214 52.4832L23.8915 52.341C24.3102 52.4494 24.737 52.5236 25.1677 52.5629V52.5629Z" fill="#E6E6E6"/>
<path d="M27.0855 52.3338C27.0862 52.3385 27.0862 52.3433 27.0855 52.3481C27.0412 52.7431 26.9193 53.1255 26.727 53.4734C26.3122 53.5971 25.8778 53.6415 25.4466 53.6043C25.4758 53.262 25.4614 52.9173 25.4039 52.5785C25.4793 52.5785 25.5561 52.5785 25.6315 52.5785C25.8524 52.5808 26.073 52.5617 26.2902 52.5216C26.5583 52.4723 26.8237 52.4096 27.0855 52.3338Z" fill="#E6E6E6"/>
<path d="M28.9251 51.3209C28.615 51.9554 28.2821 52.6113 27.7443 53.0281C27.6609 53.084 27.5723 53.1317 27.4796 53.1704L27.3573 53.2273C27.3787 52.9214 27.3542 52.614 27.2847 52.3153L27.2705 52.2641C27.878 52.06 28.44 51.7396 28.9251 51.3209V51.3209Z" fill="#E6E6E6"/>
<path d="M36.4071 50.0902C36.3436 49.9789 36.2713 49.8728 36.1908 49.773V49.773C36.5536 49.1271 37.1782 47.6389 36.7799 45.5717C36.5309 44.2756 36.1026 43.4561 35.7086 42.9468C36.2591 43.3608 36.8282 43.9256 37.1426 44.6413C37.8497 46.2461 37.0957 49.2779 36.4071 50.0902Z" fill="#3D0475"/>
<path d="M36.1923 49.7715L36.1383 49.7075C36.1055 49.6691 36.0714 49.6307 36.0358 49.5937C35.9238 49.478 35.7987 49.3759 35.6631 49.2893C35.5818 49.2392 35.4961 49.1968 35.407 49.1626V49.1626C34.6163 48.6124 33.686 48.2972 32.7237 48.2535C32.1361 48.2536 31.5508 48.3263 30.9809 48.4698C30.9909 48.4413 30.9994 48.4129 31.008 48.383C31.1218 47.9856 31.2299 47.5877 31.3323 47.1893C31.6025 46.1654 31.8176 45.1277 31.9768 44.0807C32.1191 43.0322 32.2613 41.9851 32.2329 40.9123C31.8061 42.1444 31.476 43.4519 31.0535 44.6896C30.9952 44.8732 30.8771 45.2587 30.8244 45.4394C30.5228 46.5463 30.2397 47.6645 29.8968 48.76L29.8726 48.8397C29.4017 48.4812 28.1896 47.6531 26.7925 47.454C25.4736 47.2647 24.1206 47.8623 23.4975 48.1923V48.1027C23.4975 47.9946 23.4975 47.8865 23.4975 47.7769C23.5033 47.3003 23.4657 46.824 23.3851 46.3542H23.5089C25.8919 46.3542 26.9362 45.5347 26.9461 45.5276C30.2482 43.109 30.5399 37.6046 30.5641 36.5219C30.5648 36.5167 30.5648 36.5114 30.5641 36.5062C30.5712 36.4223 30.5754 36.2473 30.5925 36.0993L30.6893 36.0837C30.988 36.0225 31.2868 35.957 31.5842 35.8845L34.0184 41.8798L34.0824 42.0377L34.2403 42.1003C34.6545 42.2754 35.0505 42.4908 35.4226 42.7434V42.7434C35.5165 42.806 35.6118 42.8743 35.7072 42.9468C36.1013 43.4561 36.5295 44.2756 36.7785 45.5717C37.1797 47.6346 36.5494 49.1256 36.1923 49.7715Z" fill="#7606BF"/>
<path d="M29.8726 48.8411C29.6294 49.6262 29.3401 50.3963 29.0062 51.1473L28.9251 51.3209C28.4401 51.744 27.877 52.0683 27.2676 52.2755L27.242 52.2001C27.1901 52.0428 27.1069 51.8976 26.9973 51.7733C27.0598 51.9219 27.0912 52.0816 27.0898 52.2428C27.0898 52.2712 27.0898 52.2997 27.0898 52.3281C26.8267 52.406 26.5598 52.4705 26.2902 52.5216C26.073 52.5617 25.8524 52.5808 25.6315 52.5785C25.5561 52.5785 25.4793 52.5785 25.4039 52.5785C25.4039 52.5529 25.3939 52.5259 25.3882 52.4989C25.3864 52.4888 25.384 52.4788 25.3811 52.469C25.3467 52.2953 25.2694 52.1329 25.1563 51.9967C25.2067 52.1529 25.2165 52.3193 25.1848 52.4804V52.4804C25.1848 52.506 25.1748 52.5316 25.1691 52.5572C24.737 52.5186 24.3088 52.4448 23.8887 52.3367L23.8716 52.2499C23.6076 50.9124 23.4822 49.5513 23.4975 48.1881C24.1206 47.858 25.4736 47.2605 26.7924 47.4497C28.1895 47.6546 29.4017 48.4826 29.8726 48.8411Z" fill="#FAFBFB"/>
<path d="M34.6202 52.4206C34.6082 52.5964 34.5854 52.7712 34.5519 52.9442C34.4236 52.9948 34.2925 53.038 34.1592 53.0736C33.8267 53.1583 33.4894 53.2229 33.1491 53.2671C33.091 53.0926 33.0241 52.9212 32.9485 52.7535C32.8854 52.6152 32.8131 52.4811 32.7322 52.3523C33.0023 52.4044 33.2767 52.4306 33.5517 52.4306C33.98 52.4306 34.3314 52.4263 34.6202 52.4206Z" fill="#E6E6E6"/>
<path d="M32.5658 53.3212C31.4419 53.3795 30.3037 53.1789 29.3946 52.5259C29.6804 52.0331 29.9278 51.5189 30.1344 50.988C30.8007 51.614 31.6123 52.0643 32.4961 52.2983C32.5032 52.3225 32.5103 52.3467 32.516 52.3694C32.576 52.6829 32.5928 53.0032 32.5658 53.3212V53.3212Z" fill="#E6E6E6"/>
<path d="M35.4382 52.3879C35.3743 52.4567 35.3043 52.5195 35.2291 52.5757C35.2163 52.5174 35.2035 52.459 35.1893 52.4021L35.4382 52.3879Z" fill="#E6E6E6"/>
<path d="M35.5151 52.304C35.4909 52.3324 35.4653 52.3609 35.4383 52.3879L35.1893 52.4021C35.1822 52.3751 35.1765 52.3495 35.168 52.3239C35.0741 51.9569 34.9166 51.6093 34.7027 51.2967C34.5822 51.1259 34.4221 50.9868 34.2361 50.8912C34.3728 51.0301 34.473 51.2007 34.5277 51.3878C34.6144 51.6976 34.6476 52.02 34.6259 52.341C34.6259 52.368 34.6259 52.3936 34.6259 52.4206C34.3414 52.4206 33.9857 52.4306 33.5574 52.4306C33.2824 52.4306 33.008 52.4044 32.738 52.3523V52.3523C32.6311 52.1786 32.4849 52.0324 32.3112 51.9255C32.3838 52.0081 32.4381 52.105 32.4705 52.2101V52.2101C32.4805 52.2385 32.489 52.2684 32.4961 52.2969C31.6123 52.0628 30.8007 51.6125 30.1344 50.9865L30.1643 50.9083C30.2525 50.6892 30.335 50.4687 30.4175 50.2467C30.6281 49.6592 30.8159 49.0673 30.9866 48.4712C31.5564 48.3277 32.1418 48.255 32.7294 48.2549C33.6912 48.2989 34.621 48.614 35.4112 49.1641C35.5177 49.3754 35.609 49.5941 35.6844 49.8185C36.0173 50.8585 36.0187 51.7036 35.5151 52.304Z" fill="white"/>
<path d="M18.2377 52.4078C18.2377 52.432 18.2277 52.4562 18.222 52.4818C18.2076 52.5581 18.1877 52.6332 18.1623 52.7066C18.0927 52.8977 17.9792 53.0697 17.8309 53.2088C17.6827 53.348 17.5038 53.4503 17.3087 53.5076C17.1505 53.2116 17.0309 52.8965 16.953 52.57C17.0654 52.58 17.1692 52.5857 17.2674 52.5857C17.5995 52.5925 17.9296 52.532 18.2377 52.4078V52.4078Z" fill="#E6E6E6"/>
<path d="M16.6855 53.6541C16.2683 53.6974 15.8468 53.6631 15.442 53.5531C15.2073 53.1092 14.9854 52.6027 15.0451 52.1034C15.5896 52.3067 16.1529 52.4554 16.7268 52.5472C16.6611 52.9124 16.6472 53.2851 16.6855 53.6541Z" fill="#E6E6E6"/>
<path d="M14.7819 53.3241L14.6198 53.2515C13.9568 52.9755 13.3578 51.9995 12.847 50.8044C13.4645 51.3492 14.1768 51.776 14.9484 52.0635C14.7833 52.4619 14.7259 52.8966 14.7819 53.3241V53.3241Z" fill="#E6E6E6"/>
<path d="M18.2562 52.3168C18.2562 52.3481 18.2434 52.3808 18.2377 52.4135C17.9309 52.5371 17.6024 52.5976 17.2717 52.5914C17.1735 52.5914 17.0697 52.5914 16.9573 52.5757C16.9512 52.5489 16.9464 52.5219 16.943 52.4946C16.9152 52.3286 16.9249 52.1584 16.9715 51.9967C16.8621 52.136 16.7849 52.2978 16.7453 52.4704C16.7382 52.496 16.7325 52.5216 16.7268 52.5472C16.1529 52.4554 15.5896 52.3067 15.0452 52.1034C15.0476 52.0766 15.0513 52.05 15.0565 52.0237C15.0709 51.9399 15.0943 51.8578 15.1262 51.779C15.0711 51.8452 15.0234 51.9172 14.984 51.9938C14.9702 52.0163 14.9579 52.0396 14.947 52.0635C14.1754 51.776 13.4631 51.3492 12.8456 50.8044C12.8214 50.7461 12.7959 50.6863 12.7717 50.6252C12.5768 50.1528 12.3961 49.6535 12.2296 49.1512C12.731 48.5887 13.3523 48.1459 14.0477 47.8555C14.7431 47.5652 15.4948 47.4348 16.2473 47.4739C17.0523 47.5484 17.845 47.7219 18.6076 47.9903C18.6467 49.4409 18.5289 50.8915 18.2562 52.3168V52.3168Z" fill="#FAFBFB"/>
<path d="M12.6479 52.5842C11.7473 53.1903 10.649 53.3781 9.562 53.3226C9.52712 52.9942 9.54536 52.6622 9.61605 52.3395C10.4775 52.1725 11.2867 51.8023 11.9763 51.2597C12.1697 51.716 12.3941 52.1586 12.6479 52.5842V52.5842Z" fill="#E6E6E6"/>
<path d="M9.37569 52.3765C9.20578 52.6554 9.07192 52.9546 8.97732 53.2671C8.63707 53.2228 8.29978 53.1582 7.96722 53.0737C7.83297 53.0383 7.7009 52.995 7.57171 52.9442C7.56175 52.8944 7.55318 52.8418 7.54607 52.8019C7.52615 52.6284 7.50626 52.4477 7.49915 52.2656C7.82313 52.3384 8.15228 52.386 8.48365 52.4078C8.59177 52.4164 8.69848 52.4192 8.80233 52.4192C8.99418 52.4175 9.1857 52.4032 9.37569 52.3765V52.3765Z" fill="#E6E6E6"/>
<path d="M7.01535 52.1233C6.96774 52.271 6.92788 52.421 6.89587 52.5729C6.64114 52.3839 6.44408 52.1277 6.32678 51.8331C6.54799 51.9485 6.77827 52.0456 7.01535 52.1233V52.1233Z" fill="#E6E6E6"/>
<path d="M9.64735 52.2542C9.68516 52.1372 9.74348 52.0278 9.81952 51.9312C9.66557 52.0201 9.53373 52.1426 9.43394 52.2897C9.4126 52.3182 9.39269 52.3466 9.37277 52.3765C9.18408 52.4011 8.99398 52.4135 8.80369 52.4135C8.69983 52.4135 8.59313 52.4135 8.48501 52.4021C8.15364 52.3803 7.82449 52.3327 7.5005 52.2599C7.5005 52.2314 7.5005 52.2044 7.5005 52.1773C7.49054 51.7107 7.56595 51.2412 7.8946 50.8969C7.47632 51.1132 7.21312 51.5656 7.04097 52.055C7.03243 52.0792 7.02387 52.1034 7.01676 52.129C6.77888 52.0532 6.54765 51.958 6.32534 51.8444C6.31112 51.8089 6.29973 51.7719 6.28835 51.7349C6.27697 51.6979 6.2741 51.6851 6.26841 51.6595C6.1048 50.8642 6.31821 50.0447 6.65823 49.3049C8.1407 48.0444 10.4754 48.2777 10.9776 48.346C11.2459 49.3127 11.5708 50.2628 11.9507 51.1914C11.9621 51.217 11.9735 51.2412 11.9835 51.2668C11.2938 51.8094 10.4846 52.1796 9.62317 52.3466C9.62926 52.3153 9.63732 52.2844 9.64735 52.2542V52.2542Z" fill="#FAFBFB"/>
<path d="M40.193 21.3359C40.0219 20.5191 39.7971 19.7144 39.52 18.9272C38.5526 16.1643 37.0772 13.6632 35.4695 11.2062C36.0262 11.7422 36.5488 12.3124 37.0345 12.9134C37.074 9.06714 36.2474 5.26128 34.6159 1.7779C34.5752 1.6911 34.5017 1.62397 34.4116 1.59118C34.3215 1.55839 34.2221 1.5626 34.1351 1.60291C32.0306 2.57583 30.0783 3.84863 28.3389 5.38162C28.7747 5.62972 29.1952 5.90386 29.598 6.20253C24.0289 4.94116 18.2486 4.93727 12.6778 6.19114C13.0905 5.88797 13.521 5.60958 13.9667 5.35744C12.234 3.83531 10.291 2.5708 8.19765 1.60291C8.11064 1.5626 8.01121 1.55839 7.9211 1.59118C7.83099 1.62397 7.75755 1.6911 7.71679 1.7779C6.12746 5.17222 5.30186 8.8738 5.29818 12.6218C5.71734 12.1455 6.16741 11.6973 6.64549 11.2802C6.18168 11.9247 5.73208 12.5862 5.30669 13.272C5.2569 13.3502 5.2071 13.4285 5.16442 13.5081C3.72749 15.8428 2.57795 18.3738 2.04728 21.0485C2.04728 21.0769 2.03588 21.1068 2.03162 21.1353C4.11282 22.8174 6.57832 23.9577 9.20779 24.4545C9.96922 24.6016 10.7427 24.6774 11.5183 24.6807C13.281 24.6807 14.8289 24.2453 16.1435 23.376L16.1805 23.3647C19.3604 22.2508 22.8163 22.2009 26.027 23.2224L26.0583 23.2309C27.2107 23.9992 28.7074 24.5313 30.6708 24.7305C30.9069 24.7532 31.1459 24.7646 31.3821 24.7646C34.357 24.7646 37.7175 23.0303 40.1944 21.4212L40.193 21.3359ZM7.56882 8.74917C7.48952 8.80221 7.3972 8.83251 7.30189 8.83677C7.20658 8.84104 7.11191 8.8191 7.02819 8.77336C6.94281 8.72955 6.87111 8.66312 6.82093 8.58132C6.77075 8.49953 6.74401 8.40552 6.74364 8.30956C6.75035 6.88891 6.90774 5.47298 7.21315 4.08553C7.32241 3.65868 7.50173 3.25292 7.74381 2.88477C7.87713 2.68233 8.08523 2.54096 8.32255 2.49163C8.55988 2.4423 8.80706 2.48902 9.01001 2.62157C9.49658 2.94167 10.0856 3.37702 10.6475 3.80953C11.2095 4.24203 11.7416 4.66315 12.1129 4.96903C12.1702 5.01573 12.2158 5.07518 12.246 5.14263C12.2762 5.21008 12.2902 5.28366 12.2869 5.35748C12.2835 5.4313 12.263 5.50333 12.2269 5.5678C12.1908 5.63227 12.14 5.68739 12.0788 5.72876C11.1469 6.35902 8.83219 7.91689 7.56882 8.74917ZM10.3488 14.689C10.3986 13.9335 11.5026 13.3915 12.8086 13.4783C14.1147 13.565 15.1362 14.2494 15.085 15.0034C15.0622 15.3534 14.8118 15.6578 14.4192 15.8755C13.9488 16.1138 13.4269 16.2326 12.8997 16.2212C12.8101 16.2212 12.719 16.2212 12.6266 16.2127C11.3205 16.1288 10.299 15.443 10.3488 14.689ZM16.0396 20.1877C16.0127 20.9461 15.7551 21.6781 15.3012 22.2862C14.8872 22.8112 14.3637 23.0972 13.8202 23.0972H13.7348C13.1657 23.0659 12.6394 22.7187 12.2652 22.1226C11.8799 21.4687 11.7032 20.7128 11.7587 19.9558C11.8497 18.2884 12.8826 16.9852 14.0635 17.0478C15.2443 17.1104 16.1264 18.5189 16.0354 20.1877H16.0396ZM29.5938 22.1169C29.221 22.7131 28.6989 23.0588 28.1255 23.0901H28.0416C26.8963 23.0901 25.9075 21.8096 25.8193 20.1792C25.8193 20.101 25.8193 20.0241 25.8193 19.9473C25.8193 18.3823 26.673 17.1019 27.8026 17.0393C28.3717 17.0094 28.9322 17.2954 29.3676 17.8474C29.8092 18.4627 30.0655 19.1915 30.1064 19.9478C30.1472 20.7041 29.9708 21.4562 29.598 22.1155L29.5938 22.1169ZM30.8742 15.7034C30.3792 16.0082 29.8146 16.1821 29.2338 16.2084C29.1414 16.2084 29.0489 16.217 28.9578 16.217C28.4678 16.2269 27.9817 16.1273 27.5351 15.9253C27.0656 15.6963 26.7925 15.3676 26.7683 14.9977C26.7441 14.6278 26.9703 14.2664 27.4056 13.9791C27.9005 13.6738 28.4651 13.4999 29.046 13.474C30.3521 13.3872 31.4547 13.9293 31.5045 14.6833C31.5272 15.0532 31.301 15.4174 30.8586 15.7019L30.8742 15.7034ZM35.1807 8.83738C35.0794 8.83607 34.9805 8.80543 34.8962 8.74917C33.6371 7.91973 31.3195 6.36044 30.3819 5.72876C30.3205 5.68758 30.2695 5.63253 30.2332 5.56805C30.1969 5.50356 30.1763 5.43145 30.1729 5.35752C30.1696 5.2836 30.1837 5.20992 30.2141 5.14244C30.2445 5.07496 30.2903 5.01557 30.3478 4.96903C31.089 4.36723 32.4819 3.26178 33.4507 2.62157C33.6537 2.48902 33.9009 2.4423 34.1382 2.49163C34.3755 2.54096 34.5836 2.68233 34.717 2.88477C34.959 3.25292 35.1384 3.65868 35.2476 4.08553C35.5447 5.47201 35.6949 6.88592 35.6958 8.30386C35.6959 8.39993 35.6693 8.49414 35.6191 8.57602C35.5689 8.6579 35.4969 8.72424 35.4112 8.76767C35.3377 8.80965 35.2553 8.83354 35.1708 8.83738H35.1807Z" fill="#7606BF"/>
<path d="M14.0535 17.0592C12.8741 16.9966 11.8398 18.2998 11.7501 19.9672C11.6941 20.7242 11.8709 21.4803 12.2566 22.134C12.6294 22.7301 13.1515 23.0758 13.7263 23.1086H13.8116C14.3551 23.1086 14.8787 22.824 15.2927 22.2976C15.7465 21.6895 16.0041 20.9574 16.0311 20.1991C16.1221 18.5317 15.2343 17.1246 14.0535 17.0592ZM15.1035 19.6941C15.0906 19.9438 15.012 20.1857 14.8758 20.3955C14.8302 20.4741 14.7661 20.5404 14.689 20.5885C14.6118 20.6366 14.5241 20.6651 14.4334 20.6715H14.4049C14.0606 20.6473 13.8131 20.1678 13.8515 19.6058C13.8646 19.3555 13.9436 19.113 14.0806 18.903C14.1274 18.8196 14.1955 18.7501 14.278 18.7016C14.3605 18.6531 14.4544 18.6274 14.5501 18.627C14.8958 18.6526 15.1433 19.1307 15.1035 19.6941Z" fill="black"/>
<path d="M15.1035 19.694C15.0905 19.9438 15.012 20.1857 14.8758 20.3954C14.8302 20.4741 14.7661 20.5404 14.6889 20.5885C14.6118 20.6366 14.5241 20.6651 14.4334 20.6714H14.4049C14.0606 20.6473 13.8131 20.1678 13.8515 19.6058C13.8646 19.3555 13.9436 19.113 14.0805 18.903C14.1274 18.8196 14.1955 18.7501 14.278 18.7016C14.3604 18.6531 14.4544 18.6274 14.55 18.627C14.8958 18.6526 15.1433 19.1307 15.1035 19.694Z" fill="white"/>
<path d="M15.0807 15.0162C15.058 15.3662 14.8061 15.6706 14.4149 15.8883C13.9444 16.1265 13.4226 16.2452 12.8954 16.234C12.8044 16.234 12.7147 16.234 12.6223 16.2255C11.3162 16.1387 10.2933 15.4544 10.3459 14.7004C10.3986 13.9463 11.4998 13.4043 12.8044 13.4911C14.109 13.5778 15.1319 14.2622 15.0807 15.0162Z" fill="white"/>
<path d="M12.2865 5.37024C12.2836 5.44431 12.2632 5.51665 12.2272 5.5814C12.1911 5.64616 12.1403 5.70151 12.0788 5.74298C11.1427 6.37324 8.82792 7.93111 7.56456 8.7634C7.48525 8.81644 7.39294 8.84673 7.29763 8.851C7.20232 8.85526 7.10765 8.83333 7.02392 8.78758C6.93833 8.74366 6.86651 8.67701 6.81632 8.59494C6.76612 8.51287 6.73949 8.41856 6.73938 8.32236C6.74559 6.90223 6.9025 5.48677 7.20746 4.09976C7.31783 3.67305 7.49759 3.26739 7.73955 2.89899C7.8053 2.79865 7.89017 2.71224 7.98932 2.64471C8.08847 2.57717 8.19997 2.52983 8.31742 2.50539C8.43487 2.48095 8.556 2.47989 8.67386 2.50226C8.79172 2.52464 8.904 2.57001 9.00432 2.63579C9.49089 2.9559 10.0813 3.39125 10.6433 3.82375C11.2053 4.25625 11.7374 4.67738 12.1087 4.98326C12.1667 5.02918 12.2131 5.08817 12.244 5.15542C12.2749 5.22267 12.2895 5.29628 12.2865 5.37024V5.37024Z" fill="#3D0475"/>
<path d="M40.2726 21.7911L40.2428 21.6318C40.2314 21.5692 40.2186 21.5066 40.2058 21.444C37.7288 23.0531 34.3727 24.7888 31.3949 24.7888C31.1574 24.7889 30.92 24.7771 30.6836 24.7532C28.7046 24.5526 27.1979 24.0134 26.0398 23.2338C22.8292 22.2114 19.3731 22.2613 16.1933 23.376C14.8702 24.2595 13.3094 24.7034 11.5311 24.7034C10.7556 24.6994 9.98212 24.6237 9.22058 24.4772C6.59112 23.9805 4.12566 22.8401 2.04445 21.158C1.91105 21.844 1.82126 22.5378 1.77557 23.2352C1.75281 23.6179 1.74282 23.9977 1.74852 24.3733C1.74852 24.4644 1.74852 24.5569 1.75564 24.6479C1.76559 24.9609 1.7855 25.2711 1.81823 25.5784C1.82819 25.6694 1.8396 25.7605 1.84956 25.8515C1.8856 26.12 1.92874 26.3865 1.97901 26.6511C1.99751 26.7436 2.01599 26.836 2.03733 26.9285C2.71881 28.1848 4.15432 30.4398 6.34387 31.9934C9.59903 34.3024 16.4779 35.1233 21.3791 35.1233C26.4283 35.1233 33.2587 34.0264 35.9689 31.9934C37.7151 30.6563 39.1711 28.9782 40.2485 27.0608C40.2684 26.9712 40.2869 26.8802 40.3039 26.7905V26.782C40.5986 25.1304 40.588 23.4388 40.2726 21.7911V21.7911Z" fill="white"/>
<path d="M25.9218 28.7709C25.5905 29.2261 25.1103 29.5508 24.5645 29.6886C24.5303 29.6985 24.4976 29.7071 24.4621 29.7142C24.095 30.3814 23.055 31.871 21.1059 31.7714C19.1141 31.6704 18.1836 30.2306 17.8835 29.6374L17.781 29.6103C17.2549 29.4721 16.7931 29.1553 16.475 28.714C16.2699 28.4136 16.1388 28.0689 16.0923 27.7082L16.0837 27.637C16.0771 27.5827 16.0733 27.5281 16.0723 27.4734C16.0626 27.2627 16.0818 27.0516 16.1292 26.846C16.3512 28.1891 17.0483 29.1508 18.4582 29.1992C18.9536 29.2315 19.4502 29.1583 19.9151 28.9843C20.1524 28.8879 20.3657 28.7408 20.5402 28.5533C20.7146 28.3658 20.846 28.1424 20.9252 27.8988V27.8803L20.9679 26.5316C19.1724 26.3893 18.6432 24.591 18.6432 24.591C18.6432 24.591 18.8665 23.4201 21.1329 23.4201C23.3993 23.4201 23.7151 24.5341 23.7151 24.5341C23.7151 24.5341 23.2371 26.3836 21.4388 26.5259L21.416 27.8576C21.5882 28.5134 22.1743 28.9957 22.8274 29.1508C23.0348 29.2055 23.2475 29.2374 23.4619 29.2461C23.9523 29.2958 24.4466 29.2019 24.8846 28.9758C25.1211 28.8417 25.3254 28.6577 25.4836 28.4366C25.685 28.2294 25.8487 27.9887 25.9673 27.7253C26.0988 27.45 26.1811 27.1539 26.2106 26.8503H26.229C26.229 26.8944 26.2419 26.9399 26.2447 26.984C26.2547 27.0623 26.2603 27.1405 26.2632 27.2188C26.2943 27.7577 26.1762 28.2948 25.9218 28.7709Z" fill="white"/>
<path d="M23.681 29.7868C23.5387 29.774 23.3324 29.7796 23.1902 29.7526L22.944 29.717C22.7797 29.6852 22.618 29.6409 22.4603 29.5847C21.927 29.4047 21.4739 29.0432 21.1798 28.5632C21.1162 28.6743 21.0429 28.7795 20.9607 28.8776C20.3433 29.6103 19.3303 29.7925 18.4227 29.7199C18.2404 29.7068 18.0595 29.6782 17.882 29.6345C18.1836 30.2235 19.1198 31.6633 21.1059 31.7686C23.0536 31.8682 24.0936 30.38 24.4606 29.7128C24.2051 29.7713 23.943 29.7962 23.681 29.7868V29.7868ZM23.1859 30.5266C22.646 31.037 21.9299 31.3193 21.187 31.3147C20.4407 31.3172 19.7203 31.0413 19.1667 30.5408L19.1482 30.5223L19.1582 30.4981C19.3495 30.1358 19.6384 29.8341 19.9921 29.6272C20.3458 29.4203 20.7503 29.3164 21.1599 29.3272H21.177C21.5865 29.3173 21.9909 29.4197 22.3463 29.6233C22.7017 29.827 22.9946 30.1241 23.193 30.4825L23.2029 30.5066L23.1859 30.5266Z" fill="black"/>
<path d="M23.193 30.4782C22.9946 30.1198 22.7018 29.8227 22.3464 29.6191C21.991 29.4154 21.5865 29.313 21.177 29.3229H21.16C20.7503 29.3121 20.3458 29.416 19.9921 29.6229C19.6384 29.8298 19.3496 30.1315 19.1582 30.4938L19.1483 30.518L19.1668 30.5365C19.7204 31.037 20.4407 31.313 21.187 31.3105C21.93 31.315 22.646 31.0327 23.1859 30.5223L23.203 30.5024L23.193 30.4782ZM22.7662 30.7627C22.2989 31.0696 21.7518 31.2328 21.1927 31.2322C20.6365 31.2326 20.0912 31.0769 19.6192 30.7826L19.5466 30.7357C19.5793 30.5379 19.7586 29.6929 20.4159 29.6929C20.7204 29.6929 21.0789 29.8451 21.1685 30.2221C21.3378 29.8792 21.5327 29.6829 21.9254 29.6829C22.3622 29.6829 22.8131 30.067 22.8416 30.7129L22.7662 30.7627Z" fill="#E2817A"/>
<path d="M22.8373 30.7101L22.7605 30.7627C22.2931 31.0696 21.7461 31.2328 21.187 31.2322C20.6326 31.2316 20.0896 31.0759 19.6191 30.7827L19.5466 30.7357C19.5793 30.5379 19.7586 29.6929 20.4159 29.6929C20.7203 29.6929 21.0788 29.8451 21.1684 30.2221C21.3377 29.8792 21.5327 29.6829 21.9253 29.6829C22.3578 29.6801 22.8089 30.0713 22.8373 30.7101Z" fill="#FCA89F"/>
<path d="M25.9217 28.7596C25.5899 29.214 25.1099 29.5385 24.5645 29.6772L24.462 29.7042C24.2067 29.7642 23.9446 29.7905 23.6824 29.7825C23.5401 29.7697 23.3338 29.7754 23.1916 29.7483L22.9454 29.7128C22.7811 29.6809 22.6194 29.6367 22.4617 29.5805C21.9284 29.4004 21.4753 29.0389 21.1813 28.5589C21.1176 28.67 21.0443 28.7752 20.9622 28.8734C20.3447 29.6061 19.3318 29.7882 18.4241 29.7156C18.2418 29.7025 18.0609 29.6739 17.8834 29.6303L17.7824 29.6018C17.2561 29.4639 16.794 29.1476 16.4749 28.7069C16.2937 28.4371 16.1696 28.1331 16.1104 27.8135C16.0512 27.494 16.0581 27.1657 16.1307 26.8489C16.3526 28.1919 17.0497 29.1536 18.4596 29.202C18.955 29.2344 19.4516 29.1611 19.9165 28.9872C20.1538 28.8907 20.3671 28.7436 20.5416 28.5561C20.716 28.3686 20.8474 28.1452 20.9266 27.9017V27.8832L20.9693 26.5231C19.1724 26.3808 18.6431 24.5825 18.6431 24.5825C18.6431 24.5825 18.8665 23.4116 21.1329 23.4116C23.3993 23.4116 23.7151 24.5256 23.7151 24.5256C23.7151 24.5256 23.2371 26.3751 21.4388 26.5174L21.416 27.8561C21.5867 28.5148 22.1729 29.0028 22.8274 29.1536C23.0348 29.2083 23.2475 29.2403 23.4619 29.249C23.9523 29.2986 24.4466 29.2047 24.8846 28.9787C25.121 28.8446 25.3254 28.6606 25.4835 28.4394C25.6849 28.2323 25.8487 27.9916 25.9673 27.7281C26.0988 27.4528 26.1811 27.1567 26.2106 26.8531H26.229C26.3379 27.5051 26.2299 28.1748 25.9217 28.7596V28.7596Z" fill="black"/>
<path d="M30.0917 19.9701C30.0645 19.2114 29.8069 18.4789 29.3533 17.8702C28.918 17.3181 28.3574 17.0322 27.7883 17.0621C26.6644 17.1232 25.8065 18.4065 25.8065 19.9687C25.8065 20.0469 25.8065 20.1237 25.8065 20.202C25.8947 21.831 26.8835 23.1114 28.0274 23.1114H28.1113C28.6804 23.0801 29.2082 22.7344 29.581 22.1383C29.9679 21.4844 30.1461 20.728 30.0917 19.9701V19.9701ZM27.4441 20.6672H27.4156C27.0827 20.6672 26.7839 20.2404 26.7455 19.6884C26.7455 19.6485 26.7455 19.6087 26.7455 19.5703C26.7455 19.0595 26.9831 18.6455 27.3032 18.6228C27.6461 18.5986 27.9605 19.0368 28.0003 19.6002C28.0402 20.1636 27.7812 20.6416 27.4441 20.6672Z" fill="black"/>
<path d="M27.444 20.6672H27.4156C27.0827 20.6672 26.7839 20.2404 26.7455 19.6884C26.7455 19.6485 26.7455 19.6087 26.7455 19.5703C26.7455 19.0595 26.9831 18.6455 27.3032 18.6228C27.646 18.5986 27.9605 19.0368 28.0003 19.6002C28.0401 20.1635 27.7812 20.6416 27.444 20.6672Z" fill="white"/>
<path d="M30.8585 15.7162C30.3631 16.0202 29.7988 16.194 29.2181 16.2212C29.1233 16.2269 29.0308 16.2298 28.9407 16.2298C28.4541 16.2407 27.9711 16.1435 27.5266 15.9452C27.0556 15.7162 26.7839 15.3875 26.7597 15.0176C26.7355 14.6477 26.9617 14.2863 27.3971 13.9975C27.8919 13.6936 28.4559 13.5203 29.036 13.4939C30.3435 13.4071 31.4461 13.9492 31.4959 14.7032C31.5229 15.066 31.2953 15.4274 30.8585 15.7162Z" fill="white"/>
<path d="M35.6958 8.32093C35.696 8.4172 35.6695 8.51164 35.6193 8.59377C35.569 8.6759 35.497 8.74249 35.4112 8.78616C35.3275 8.8319 35.2328 8.85383 35.1375 8.84957C35.0422 8.8453 34.9499 8.81501 34.8706 8.76197C33.6129 7.93253 31.2953 6.37324 30.3563 5.74156C30.2951 5.70018 30.2444 5.64506 30.2083 5.58059C30.1721 5.51613 30.1516 5.4441 30.1483 5.37028C30.145 5.29646 30.159 5.22288 30.1892 5.15543C30.2193 5.08798 30.2649 5.02853 30.3222 4.98183C31.0648 4.38003 32.4563 3.27458 33.4265 2.63436C33.5272 2.56724 33.6401 2.52078 33.7589 2.49768C33.8776 2.47457 33.9997 2.47529 34.1182 2.49978C34.2367 2.52426 34.3491 2.57203 34.4489 2.64032C34.5488 2.70861 34.6341 2.79605 34.6999 2.89756C34.943 3.26533 35.1228 3.67119 35.232 4.09833C35.5348 5.48561 35.6902 6.90099 35.6958 8.32093Z" fill="#3D0475"/>
<path d="M15.4094 36.603H15.3212V36.5944L15.4094 36.603Z" fill="black"/>
<path d="M21.5711 41.4373C21.0104 41.4373 20.4623 41.271 19.9961 40.9594C19.53 40.6478 19.1667 40.2049 18.9524 39.6868C18.738 39.1687 18.6821 38.5987 18.7918 38.0488C18.9015 37.499 19.1719 36.994 19.5686 36.5978C19.9654 36.2016 20.4708 35.9321 21.0208 35.8232C21.5709 35.7143 22.1408 35.7711 22.6586 35.9862C23.1763 36.2014 23.6187 36.5653 23.9296 37.0319C24.2405 37.4985 24.406 38.0469 24.4051 38.6076C24.4028 39.3581 24.1034 40.0772 23.5723 40.6075C23.0412 41.1378 22.3216 41.4362 21.5711 41.4373V41.4373Z" fill="black"/>
<path d="M21.5711 36.4408C21.1434 36.4408 20.7253 36.5676 20.3697 36.8052C20.014 37.0428 19.7369 37.3806 19.5732 37.7757C19.4095 38.1709 19.3667 38.6057 19.4501 39.0252C19.5336 39.4447 19.7395 39.83 20.042 40.1324C20.3444 40.4348 20.7297 40.6408 21.1492 40.7242C21.5687 40.8077 22.0035 40.7649 22.3987 40.6012C22.7938 40.4375 23.1315 40.1603 23.3692 39.8047C23.6068 39.4491 23.7336 39.031 23.7336 38.6033C23.7332 38.0299 23.5053 37.48 23.0998 37.0746C22.6943 36.6691 22.1445 36.4411 21.5711 36.4408V36.4408Z" fill="#7606BF"/>
</svg>
