<svg width="124" height="116" viewBox="0 0 124 116" fill="none" xmlns="http://www.w3.org/2000/svg">
<path d="M85.3042 116H38.5783C17.5779 116 0.777588 99.3543 0.777588 78.5471V37.4529C0.777588 16.6457 17.5779 0 38.5783 0H85.3042C106.305 0 123.105 16.6457 123.105 37.4529V78.5471C123.105 99.3543 106.305 116 85.3042 116ZM38.5783 8.32287C22.303 8.32287 9.17775 21.3274 9.17775 37.4529V78.5471C9.17775 94.6726 22.303 107.677 38.5783 107.677H85.3042C101.579 107.677 114.705 94.6726 114.705 78.5471V37.4529C114.705 21.3274 101.579 8.32287 85.3042 8.32287H38.5783V8.32287Z" fill="white"/>
<path d="M61.0908 92.8002C42.0633 92.8002 26.2976 77.0314 26.2976 58.0002C26.2976 38.969 42.0633 23.2002 61.0908 23.2002C80.1183 23.2002 95.884 38.969 95.884 58.0002C96.4276 77.0314 80.6619 92.8002 61.0908 92.8002ZM61.0908 31.3564C46.4124 31.3564 34.9959 43.319 34.9959 57.4564C34.9959 72.1377 46.9561 83.5564 61.0908 83.5564C75.7692 83.5564 87.1857 71.5939 87.1857 57.4564C87.7293 43.319 75.7692 31.3564 61.0908 31.3564Z" fill="white"/>
<path d="M99.9045 22.1418C99.9045 26.1143 96.4975 29.5194 92.5227 29.5194C88.5479 29.5194 85.1409 26.1143 85.1409 22.1418C85.1409 18.1692 88.5479 14.7642 92.5227 14.7642C96.4975 14.7642 99.9045 18.1692 99.9045 22.1418Z" fill="white"/>
</svg>
