<svg width="142" height="116" viewBox="0 0 142 116" fill="none" xmlns="http://www.w3.org/2000/svg">
<path d="M44.5715 116C28.1654 116 12.8722 111.255 0 103.067C10.9289 103.77 30.2159 102.086 42.2124 90.7059C24.1657 89.8824 16.027 76.1176 14.9655 70.2353C16.4989 70.8235 23.8119 71.5294 27.9402 69.8824C7.18063 64.7059 3.99592 46.5882 4.70363 41.0588C8.59606 43.7647 15.2014 44.7059 17.7963 44.4706C-1.54784 30.7059 5.41135 10 8.83196 5.52941C22.714 24.6559 43.519 35.398 69.2574 35.9955C68.7721 33.8788 68.5158 31.6752 68.5158 29.4118C68.5158 13.1681 81.718 0 98.0038 0C106.513 0 114.18 3.59476 119.562 9.34475C125.249 8.01966 133.806 4.91773 137.99 2.23529C135.881 9.76471 129.316 16.0458 125.345 18.3738C125.378 18.453 125.313 18.2942 125.345 18.3738C128.833 17.849 138.271 16.0452 142 13.5294C140.156 17.7594 133.196 24.7924 127.484 28.7298C128.547 75.3398 92.6879 116 44.5715 116Z" fill="white"/>
</svg>
