<svg width="122" height="116" viewBox="0 0 122 116" fill="none" xmlns="http://www.w3.org/2000/svg">
<path fill-rule="evenodd" clip-rule="evenodd" d="M88.2417 13.0296C88.1558 13.5778 88.1111 14.1401 88.1111 14.7133C88.1111 20.5001 92.6629 25.1912 98.2778 25.1912C103.893 25.1912 108.444 20.5001 108.444 14.7133C108.444 8.92647 103.893 4.23534 98.2778 4.23534C95.7758 4.23534 93.485 5.16678 91.7138 6.71155L65.312 0L55.7696 39.3382C43.0754 40.1991 31.6589 44.1612 23.0465 50.1427C20.6012 47.6712 17.2511 46.1471 13.5556 46.1471C6.06903 46.1471 0 52.4019 0 60.1177C0 65.4872 2.93924 70.1492 7.25 72.488C6.93853 74.1543 6.77778 75.8543 6.77778 77.5809C6.77778 98.7992 31.0539 116 61 116C90.9461 116 115.222 98.7992 115.222 77.5809C115.222 75.8543 115.061 74.1543 114.75 72.488C119.061 70.1492 122 65.4872 122 60.1177C122 52.4019 115.931 46.1471 108.444 46.1471C104.749 46.1471 101.399 47.6712 98.9535 50.1427C89.5706 43.626 76.8594 39.5064 62.7938 39.1824L70.2436 8.47091L88.2417 13.0296ZM37.2778 81.0735C42.8927 81.0735 47.4444 76.3824 47.4444 70.5956C47.4444 64.8088 42.8927 60.1177 37.2778 60.1177C31.6629 60.1177 27.1111 64.8088 27.1111 70.5956C27.1111 76.3824 31.6629 81.0735 37.2778 81.0735ZM84.7222 81.0735C90.3371 81.0735 94.8889 76.3824 94.8889 70.5956C94.8889 64.8088 90.3371 60.1177 84.7222 60.1177C79.1073 60.1177 74.5556 64.8088 74.5556 70.5956C74.5556 76.3824 79.1073 81.0735 84.7222 81.0735ZM39.1576 92.138C37.6003 91.068 35.4962 91.5017 34.4581 93.1067C33.4199 94.7117 33.8407 96.8801 35.398 97.9501C42.7728 103.017 51.8864 105.551 61 105.551C70.1136 105.551 79.2272 103.017 86.602 97.9501C88.1593 96.8801 88.5801 94.7117 87.5419 93.1067C86.5037 91.5017 84.3997 91.068 82.8424 92.138C76.6059 96.423 68.803 98.5654 61 98.5654C56.3726 98.5654 51.7452 97.8119 47.4444 96.305C44.4931 95.2708 41.6956 93.8818 39.1576 92.138Z" fill="white"/>
</svg>
